<?xml version="1.0" encoding="utf-8"?>
<!-- Generator: Adobe Illustrator 21.1.0, SVG Export Plug-In . SVG Version: 6.00 Build 0)  -->
<svg version="1.1" id="Layer_1" xmlns="http://www.w3.org/2000/svg" xmlns:xlink="http://www.w3.org/1999/xlink" x="0px" y="0px"
	 viewBox="0 0 792 324" style="enable-background:new 0 0 792 324;" xml:space="preserve">
<style type="text/css">
	.st0{fill:#ED1C24;}
</style>
<g>
	<path class="st0" d="M67.3,68.5h17.9c4.6,0,8.6,1.6,11.9,4.7s5,7,5,11.7v154.2H67.3V68.5z"/>
	<path class="st0" d="M196.9,233.7c-6.9,3.6-14.3,5.9-22.1,6.7s-14.6,1.2-20.6,1.2c-11.9,0-22.3-3.2-31.2-9.7
		c-8.9-6.4-13.4-17.1-13.4-32c0-13.9,4-23.8,12.1-29.8c8.1-5.9,18.4-9.9,31-11.9c2.3-0.4,10.7-1.6,13.9-2
		c14.5-1.9,21.8-6.3,21.8-12.9c0-5-2.6-8.2-7.7-9.7c-5.1-1.5-9.8-2.2-14.1-2.2c-4.6,0-8.8,0.7-12.4,2c-3.6,1.3-6.3,3.8-7.9,7.4
		h-33.2c1.3-10.2,6-18.7,13.9-25.3c8.9-7.6,21.6-11.4,38.2-11.4c18.5,0,32.4,3.1,41.6,9.4c9.6,6.6,14.4,15.9,14.4,27.8v45.1
		c0,13.2-2.4,23.6-7.2,31C209.2,225,203.5,230.4,196.9,233.7z M189,172.7c-4.6,2.3-11.1,4.5-19.3,6.4l-11.4,2.5
		c-6,1.7-10,3.6-12.9,6.4c-2.7,2.6-3.5,7.3-3.5,10.9c0,5,1.5,8.9,4.5,11.9c3,2.6,7.3,4,12.9,4c9.3,0,16.5-2.6,21.8-7.9
		c5.3-5.3,7.9-12.6,7.9-21.8V172.7z"/>
	<path class="st0" d="M345.4,107.2v77.4c0,23.5-6.1,38.8-18.3,46.1c-12.2,7.3-25.6,10.9-40.2,10.9c-14.2-0.7-27.2-4.6-38.9-11.9
		c-11.7-7.3-17.6-22.3-17.6-45.1v-77.4h34.7v84.3c0,7.9,2.3,13.7,6.9,17.4c4.6,3.6,9.9,5.5,15.9,5.5c5.9,0,11.3-1.8,16.1-5.5
		c4.8-3.6,7.2-9.4,7.2-17.4v-67.4c0-4.6,1.6-8.6,4.7-11.9s7.2-5,12.1-5H345.4z"/>
	<path class="st0" d="M469.9,239.1h-17.4c-5,0-9-1.6-12.1-4.7c-3.1-3.1-4.7-7.2-4.7-12.1v-67.4c0-7.9-2.4-13.7-7.2-17.4
		c-4.8-3.6-10.2-5.5-16.1-5.5c-6,0-11.2,1.8-15.9,5.5c-4.6,3.6-6.9,9.4-6.9,17.4v84.3h-34.7v-77.4c0-22.5,5.9-37.5,17.6-45.1
		s24.7-11.7,38.9-12.4c14.5,0,27.9,3.8,40.2,11.4c12.2,7.6,18.3,23,18.3,46.1L469.9,239.1L469.9,239.1z"/>
	<path class="st0" d="M573,198.5h24.8c-3.6,13.9-10.6,24.5-20.8,31.7c-10.2,7.6-23.1,11.4-38.7,11.4c-18.8,0-33.6-6.1-44.1-18.3
		c-10.6-11.9-15.9-28.9-15.9-51.1c0-21.1,5.1-37.7,15.4-49.6c10.6-12.2,25.3-18.3,44.1-18.3c19.8,0,35.2,6,46.1,17.9
		c6,7.3,10.2,15.7,12.9,25.3h-34.7c-1.7-3.3-3.3-5.8-5-7.4c-4.3-4.6-10.4-6.9-18.3-6.9c-7.3,0-13.2,2.3-17.9,6.9
		c-6,6.6-8.9,17.5-8.9,32.7s3,26,8.9,32.2c4.3,5.3,10.7,7.9,19.3,7.9c5.6,0,10.4-1.2,14.4-3.5c1.9-1.1,4.5-3.6,5.5-4.5
		c0.9-0.9,2-2.3,4-4C566,199.3,569,198.5,573,198.5z"/>
	<path class="st0" d="M688.3,144.4c-5-6.9-11.7-10.4-20.3-10.4c-9.3,0-16.4,3.3-21.3,9.9c-5,6.6-7.4,15.7-7.4,27.3v67.9h-33.7V68.5
		h16.9c4.6,0,8.6,1.7,11.9,5c3.3,3.3,5,7.3,5,11.9v39.2c6-9.9,14.4-16.2,25.3-18.8c10.9-2.6,21.3-2,31.2,2c9.3,4,17,10.2,23.3,18.8
		s9.4,20.5,9.4,35.7v76.9h-33.2v-68.4c0-5-0.4-9.5-1.2-13.6C693.2,152.9,691.3,148.7,688.3,144.4z"/>
</g>
</svg>
